<svg width="32" height="32" viewBox="0 0 32 32" fill="none" xmlns="http://www.w3.org/2000/svg">
<rect width="32" height="31.3287" fill="black" fill-opacity="0"/>
<rect width="32" height="31.3287" fill="black" fill-opacity="0"/>
<path d="M29.8537 7.99718C28.4229 5.53698 26.4822 3.58924 24.031 2.15352C21.5794 0.717716 18.903 0 15.9999 0C13.0971 0 10.4198 0.717936 7.96873 2.15352C5.51729 3.58917 3.57662 5.53698 2.14585 7.99718C0.715309 10.4573 0 13.1438 0 16.0565C0 19.5554 1.01718 22.7017 3.05205 25.4962C5.0867 28.2909 7.71517 30.2247 10.9372 31.2979C11.3123 31.3677 11.5899 31.3186 11.7705 31.1517C11.9511 30.9846 12.0412 30.7753 12.0412 30.5247C12.0412 30.4829 12.0377 30.1067 12.0307 29.3958C12.0236 28.6848 12.0202 28.0645 12.0202 27.5353L11.541 27.6185C11.2355 27.6747 10.8501 27.6985 10.3848 27.6917C9.91969 27.6852 9.43686 27.6363 8.93695 27.5453C8.43683 27.4552 7.97165 27.2461 7.54107 26.9186C7.1107 26.591 6.80518 26.1623 6.62458 25.633L6.41626 25.1519C6.2774 24.8316 6.05879 24.4757 5.76013 24.0857C5.46147 23.6953 5.15945 23.4307 4.85393 23.2913L4.70807 23.1865C4.61087 23.1169 4.52068 23.0329 4.43728 22.9354C4.35395 22.838 4.29156 22.7404 4.2499 22.6427C4.20816 22.545 4.24275 22.4648 4.35402 22.4019C4.4653 22.339 4.6664 22.3084 4.9582 22.3084L5.37471 22.3709C5.6525 22.4268 5.99611 22.5937 6.40597 22.8726C6.81561 23.1513 7.15236 23.5136 7.41629 23.9595C7.73589 24.5311 8.12095 24.9667 8.57255 25.2664C9.02378 25.5661 9.47874 25.7157 9.93698 25.7157C10.3952 25.7157 10.791 25.6809 11.1245 25.6115C11.4576 25.5418 11.7701 25.437 12.0619 25.2977C12.1869 24.3635 12.5272 23.6458 13.0826 23.1441C12.291 23.0606 11.5794 22.9348 10.9472 22.7677C10.3155 22.6003 9.66262 22.3286 8.98912 21.9519C8.31526 21.5757 7.75625 21.1086 7.31194 20.5513C6.86757 19.9938 6.50287 19.2618 6.21837 18.356C5.93372 17.4499 5.79136 16.4046 5.79136 15.2199C5.79136 13.5331 6.34008 12.0976 7.4373 10.9128C6.92332 9.64461 6.97184 8.22295 7.58302 6.64794C7.98581 6.52235 8.58313 6.6166 9.37469 6.93009C10.1664 7.24373 10.7461 7.51241 11.1143 7.73517C11.4825 7.95786 11.7775 8.14657 11.9997 8.29962C13.2916 7.93735 14.6248 7.75618 15.9997 7.75618C17.3746 7.75618 18.7081 7.93735 20.0001 8.29962L20.7917 7.79807C21.333 7.46341 21.9723 7.15673 22.708 6.87795C23.4441 6.59931 24.007 6.52257 24.396 6.64816C25.0208 8.22324 25.0765 9.64483 24.5623 10.913C25.6595 12.0979 26.2084 13.5336 26.2084 15.2201C26.2084 16.4048 26.0656 17.4534 25.7813 18.3665C25.4968 19.2797 25.1289 20.011 24.6777 20.5618C24.2259 21.1125 23.6634 21.576 22.9899 21.9521C22.3162 22.3285 21.6632 22.6002 21.0314 22.7676C20.3993 22.935 19.6877 23.0608 18.8961 23.1444C19.6181 23.7714 19.9791 24.7611 19.9791 26.1131V30.5241C19.9791 30.7747 20.0659 30.9839 20.2398 31.1511C20.4133 31.318 20.6875 31.3672 21.0625 31.2972C24.2851 30.2242 26.9135 28.2903 28.9481 25.4956C30.9825 22.7011 32 19.5548 32 16.0559C31.9993 13.1436 31.2836 10.4573 29.8537 7.99718Z" fill="black"/>
</svg>
