<svg width="32" height="32" viewBox="0 0 32 32" fill="none" xmlns="http://www.w3.org/2000/svg">
<rect width="32" height="32" fill="black" fill-opacity="0"/>
<rect width="32" height="32" fill="black" fill-opacity="0"/>
<rect width="32" height="32" fill="black" fill-opacity="0"/>
<rect width="32" height="32" fill="black" fill-opacity="0"/>
<path d="M15.9994 19.2031C17.7646 19.2031 19.2037 17.7665 19.2037 16C19.2037 15.3027 18.9756 14.6588 18.5979 14.1329C18.0159 13.326 17.0698 12.7969 16.0013 12.7969C14.9321 12.7969 13.9866 13.3254 13.4034 14.1323C13.0244 14.6582 12.7982 15.302 12.7975 15.9994C12.7956 17.7659 14.2335 19.2031 15.9994 19.2031Z" fill="black"/>
<path d="M22.994 12.0815V9.39661V8.99702L22.5925 8.99831L19.9088 9.00669L19.9191 12.0918L22.994 12.0815Z" fill="black"/>
<path d="M16 0C7.17764 0 0 7.17764 0 16C0 24.8217 7.17764 32 16 32C24.8217 32 32 24.8217 32 16C32 7.17764 24.823 0 16 0ZM25.0995 14.1329V21.5832C25.0995 23.5237 23.5218 25.1008 21.5825 25.1008H10.4175C8.47756 25.1008 6.90051 23.5237 6.90051 21.5832V14.1329V10.4181C6.90051 8.47821 8.47756 6.90115 10.4175 6.90115H21.5819C23.5218 6.90115 25.0995 8.47821 25.0995 10.4181V14.1329Z" fill="black"/>
<path d="M20.9774 16C20.9774 18.7436 18.7449 20.9774 16 20.9774C13.2551 20.9774 11.0233 18.7436 11.0233 16C11.0233 15.34 11.1548 14.7091 11.3894 14.1329H8.67285V21.5832C8.67285 22.546 9.45461 23.3259 10.4168 23.3259H21.5813C22.5422 23.3259 23.3252 22.546 23.3252 21.5832V14.1329H20.6074C20.844 14.7091 20.9774 15.34 20.9774 16Z" fill="black"/>
</svg>
