<svg width="80" height="79" viewBox="0 0 80 79" fill="none" xmlns="http://www.w3.org/2000/svg">
<rect width="80" height="78.6747" fill="black" fill-opacity="0"/>
<rect width="80" height="78.6747" fill="black" fill-opacity="0"/>
<rect width="80" height="78.6747" fill="black" fill-opacity="0"/>
<path d="M79.615 16.3983C79.6132 16.3965 79.6112 16.3945 79.6093 16.3927L63.6078 0.391124C63.3532 0.132599 63.0029 -0.00874782 62.6403 0.00041973C62.2783 0.00692036 61.9346 0.160602 61.6884 0.426294L56.7348 5.76014C56.2516 6.28053 56.2607 7.08827 56.7556 7.59749L57.1311 7.98369L55.1643 9.95055L52.0572 9.17447C49.2704 8.49241 46.3303 9.32749 44.3181 11.3727L38.6502 17.9782L32.0642 11.3922C30.1867 9.504 27.3999 8.84577 24.876 9.69402C24.7253 9.74469 24.5848 9.82137 24.4607 9.92054L24.0986 10.2122L23.2209 9.33465L24.945 7.61049C25.4658 7.0901 25.4659 6.24602 24.9455 5.72547C24.9454 5.72531 24.9452 5.72514 24.945 5.72497L19.6112 0.391124C19.0908 -0.129593 18.2467 -0.12976 17.7262 0.390624C17.726 0.390791 17.7258 0.390957 17.7257 0.391124L0.390663 17.7261C-0.130054 18.2465 -0.130221 19.0906 0.390163 19.6111C0.390329 19.6113 0.390496 19.6115 0.390663 19.6116L5.72451 24.9455C6.24489 25.4662 7.08898 25.4664 7.60969 24.946C7.60986 24.9458 7.61003 24.9457 7.61019 24.9455L8.21242 24.3433L11.3722 27.5031L10.5961 30.6102C9.91542 33.356 10.7155 36.2581 12.707 38.2673L24.0024 49.8877V60.3122C24.0269 62.7023 25.3681 64.8839 27.4898 65.9846C28.6274 66.59 29.3378 67.7743 29.3363 69.0631V69.3404H28.0028C27.2668 69.3399 26.6699 69.9363 26.6694 70.6724C26.6694 70.6729 26.6694 70.6734 26.6694 70.6739V77.3412C26.6689 78.0773 27.2653 78.6742 28.0013 78.6747C28.0018 78.6747 28.0023 78.6747 28.0028 78.6747H53.3386C54.0747 78.6752 54.6716 78.0788 54.6721 77.3427C54.6721 77.3422 54.6721 77.3417 54.6721 77.3412V70.6739C54.6726 69.9378 54.0762 69.3409 53.3401 69.3404C53.3396 69.3404 53.3391 69.3404 53.3386 69.3404H52.0051V68.0005L54.1187 66.0511C56.1412 64.521 57.3325 62.1336 57.339 59.5973V43.9765C58.918 43.7868 60.3858 43.0667 61.5022 41.9341L68.5511 34.2797C70.2081 32.6347 70.785 30.1905 70.0382 27.9783C69.8245 27.3352 70.9731 25.2307 72.3416 23.6167C72.5858 23.8591 72.9145 23.9974 73.2585 24.0026H73.2715C73.6226 24.0026 73.9596 23.8641 74.2091 23.617L79.6041 18.2832C80.1277 17.7658 80.1325 16.9219 79.615 16.3983ZM6.66744 22.1172L3.21927 18.6689L18.6686 3.2194L22.1169 6.66756L6.66744 22.1172ZM24.1206 46.1832L14.6057 36.3946C13.2671 35.0475 12.7277 33.1 13.1824 31.2561L14.1422 27.4172C14.2563 26.963 14.1232 26.4823 13.7918 26.1514L10.0981 22.4578L21.3355 11.2203L23.0597 12.9445C23.5412 13.4257 24.3078 13.4672 24.8385 13.0408L25.9336 12.1593C27.4468 11.7362 29.0706 12.1641 30.1789 13.2779L37.5296 20.6286L37.5169 20.6381C36.922 21.1846 36.4786 21.876 36.2303 22.6448C35.4039 22.1969 34.4621 22.0077 33.5269 22.1017C31.1065 22.4174 29.3056 24.4948 29.3363 26.9355V40.8809C26.6842 41.4284 24.6245 43.5223 24.1206 46.1832ZM52.0051 76.0078H29.3363V72.0074H52.0051V76.0078ZM54.6721 59.5973C54.6566 61.3402 53.8197 62.9735 52.414 64.0041L49.7693 66.434C49.4944 66.6865 49.3381 67.0427 49.3382 67.4159V69.3406H32.0032V69.0633C32.0062 66.7889 30.7521 64.699 28.7437 63.6317C27.4924 62.993 26.695 61.7169 26.6694 60.3124V47.414C26.6745 45.7243 27.7425 44.2207 29.3363 43.6593V52.0056H32.0032V26.9354C31.9624 25.8608 32.7305 24.9248 33.7924 24.7555C34.3581 24.6971 34.9222 24.8812 35.3447 25.262C35.7662 25.6394 36.0061 26.1793 36.0036 26.7452V46.6716H38.6705V24.0782C38.6697 22.974 39.5643 22.0782 40.6686 22.0774C40.7302 22.0774 40.7917 22.0802 40.8531 22.0857C41.933 22.2657 42.7113 23.2197 42.6709 24.3138V46.6714H45.3378V28.0786C45.337 26.9744 46.2316 26.0786 47.3359 26.0778C47.3975 26.0778 47.459 26.0806 47.5204 26.0861C48.6003 26.2661 49.3786 27.22 49.3382 28.3142V46.6714H52.0051V35.6582C53.599 36.2196 54.6669 37.7232 54.6721 39.4129V59.5973ZM67.5091 28.8222C67.9327 30.0953 67.5902 31.4985 66.6276 32.4332L59.5787 40.0876C58.9688 40.704 58.1891 41.1242 57.3388 41.2947V39.4131C57.3347 36.2461 55.1069 33.5175 52.005 32.8799V28.3143C52.0518 25.8356 50.2135 23.7244 47.7519 23.4297C46.9158 23.3593 46.0759 23.5122 45.318 23.8724C45.161 21.5652 43.3815 19.6977 41.0846 19.4293C41.0279 19.4245 40.9721 19.4351 40.9154 19.4325L46.2726 13.184C47.6199 11.8459 49.5672 11.3065 51.4111 11.7607L55.25 12.7205C55.7042 12.8343 56.1847 12.7013 56.5158 12.3701L58.9902 9.89571L70.4796 21.711C69.2488 23.1388 66.7204 26.457 67.5091 28.8222ZM73.2899 20.7758L59.5514 6.64673L62.7002 3.2544L76.7757 17.3299L73.2899 20.7758Z" fill="black"/>
</svg>
