<svg width="60" height="60" viewBox="0 0 60 60" fill="none" xmlns="http://www.w3.org/2000/svg">
<rect width="60" height="59.006" fill="black" fill-opacity="0"/>
<rect width="60" height="59.006" fill="black" fill-opacity="0"/>
<rect width="60" height="59.006" fill="black" fill-opacity="0"/>
<path d="M59.7112 12.2988C59.7099 12.2974 59.7084 12.2959 59.707 12.2945L47.7058 0.293343C47.5149 0.0994494 47.2522 -0.00656087 46.9803 0.000314797C46.7087 0.00519027 46.451 0.120451 46.2663 0.319721L42.5511 4.32011C42.1887 4.71039 42.1955 5.3162 42.5667 5.69811L42.8484 5.98777L41.3732 7.46291L39.0429 6.88085C36.9528 6.3693 34.7477 6.99562 33.2386 8.52951L28.9876 13.4836L24.0482 8.54414C22.64 7.128 20.55 6.63433 18.657 7.27052C18.544 7.30852 18.4386 7.36603 18.3455 7.44041L18.074 7.65918L17.4157 7.00099L18.7088 5.70787C19.0993 5.31758 19.0994 4.68452 18.7092 4.2941C18.709 4.29398 18.7089 4.29385 18.7088 4.29373L14.7084 0.293343C14.3181 -0.0971946 13.685 -0.0973196 13.2946 0.292968C13.2945 0.293093 13.2944 0.293218 13.2943 0.293343L0.292997 13.2946C-0.0975406 13.6849 -0.0976656 14.3179 0.292622 14.7084C0.292747 14.7085 0.292872 14.7086 0.292997 14.7087L4.29338 18.7091C4.68367 19.0997 5.31673 19.0998 5.70727 18.7095C5.70739 18.7094 5.70752 18.7092 5.70764 18.7091L6.15931 18.2575L8.52917 20.6273L7.94711 22.9577C7.43656 25.017 8.03662 27.1936 9.53026 28.7005L18.0018 37.4158V45.2342C18.0202 47.0267 19.0261 48.6629 20.6173 49.4885C21.4705 49.9425 22.0033 50.8307 22.0022 51.7973V52.0053H21.0021C20.4501 52.005 20.0024 52.4523 20.002 53.0043C20.002 53.0047 20.002 53.0051 20.002 53.0054V58.0059C20.0016 58.558 20.4489 59.0056 21.001 59.006C21.0014 59.006 21.0017 59.006 21.0021 59.006H40.004C40.556 59.0064 41.0037 58.5591 41.0041 58.007C41.0041 58.0067 41.0041 58.0063 41.0041 58.0059V53.0054C41.0044 52.4534 40.5571 52.0057 40.0051 52.0053C40.0047 52.0053 40.0043 52.0053 40.004 52.0053H39.0039V51.0004L40.589 49.5383C42.1059 48.3907 42.9994 46.6002 43.0042 44.698V32.9824C44.1885 32.8401 45.2893 32.3001 46.1267 31.4506L51.4133 25.7098C52.6561 24.4761 53.0887 22.6429 52.5287 20.9837C52.3684 20.5014 53.2299 18.923 54.2562 17.7125C54.4394 17.8943 54.6859 17.9981 54.9439 18.0019H54.9537C55.2169 18.0019 55.4697 17.898 55.6568 17.7128L59.7031 13.7124C60.0958 13.3244 60.0994 12.6914 59.7112 12.2988ZM5.00058 16.5879L2.41445 14.0017L14.0014 2.41455L16.5877 5.00067L5.00058 16.5879ZM18.0905 34.6374L10.9543 27.296C9.9503 26.2856 9.54576 24.825 9.8868 23.4421L10.6066 20.5629C10.6923 20.2223 10.5924 19.8617 10.3438 19.6136L7.57358 16.8433L16.0016 8.41525L17.2948 9.70838C17.6559 10.0693 18.2309 10.1004 18.6289 9.78063L19.4502 9.11945C20.5851 8.80217 21.8029 9.12307 22.6342 9.9584L28.1472 15.4714L28.1377 15.4786C27.6915 15.8885 27.359 16.407 27.1727 16.9836C26.5529 16.6477 25.8466 16.5058 25.1451 16.5763C23.3298 16.8131 21.9792 18.3711 22.0022 20.2016V30.6607C20.0132 31.0713 18.4684 32.6417 18.0905 34.6374ZM39.0039 57.0058H22.0022V54.0055H39.0039V57.0058ZM41.0041 44.698C40.9924 46.0051 40.3647 47.2301 39.3105 48.0031L37.3269 49.8255C37.1208 50.0149 37.0035 50.282 37.0037 50.5619V52.0055H24.0024V51.7974C24.0047 50.0916 23.0641 48.5242 21.5578 47.7238C20.6193 47.2448 20.0213 46.2877 20.002 45.2343V35.5605C20.0059 34.2933 20.8069 33.1655 22.0022 32.7445V39.0042H24.0024V20.2015C23.9718 19.3956 24.5478 18.6936 25.3443 18.5666C25.7686 18.5229 26.1916 18.6609 26.5085 18.9465C26.8247 19.2295 27.0046 19.6345 27.0027 20.0589V35.0037H29.0029V18.0587C29.0023 17.2305 29.6732 16.5587 30.5014 16.558C30.5477 16.558 30.5938 16.5602 30.6398 16.5643C31.4498 16.6993 32.0334 17.4147 32.0032 18.2353V35.0036H34.0034V21.059C34.0028 20.2308 34.6737 19.559 35.5019 19.5583C35.5482 19.5583 35.5943 19.5605 35.6403 19.5646C36.4502 19.6996 37.0339 20.415 37.0037 21.2356V35.0036H39.0039V26.7436C40.1992 27.1647 41.0002 28.2924 41.0041 29.5597V44.698ZM50.6319 21.6167C50.9495 22.5715 50.6926 23.6238 49.9707 24.3249L44.684 30.0657C44.2266 30.528 43.6418 30.8432 43.0041 30.9711V29.5598C43.001 27.1846 41.3302 25.1381 39.0037 24.6599V21.2357C39.0389 19.3767 37.6601 17.7933 35.8139 17.5723C35.1869 17.5195 34.5569 17.6341 33.9885 17.9043C33.8707 16.1739 32.5361 14.7732 30.8134 14.572C30.7709 14.5683 30.7291 14.5763 30.6866 14.5743L34.7044 9.88802C35.7149 8.88442 37.1754 8.47988 38.5583 8.82054L41.4375 9.54036C41.7781 9.62574 42.1385 9.52599 42.3868 9.27759L44.2426 7.42178L52.8597 16.2833C51.9366 17.3541 50.0403 19.8427 50.6319 21.6167ZM54.9674 15.5818L44.6635 4.98505L47.0251 2.4408L57.5818 12.9974L54.9674 15.5818Z" fill="black"/>
</svg>
